# xmcd
#
# Track frame offsets:
#	150
#	12993
#	31799
#	47017
#	61605
#	82360
#	95511
#	109906
#	123176
#	138077
#	148707
#	160284
#	171338
#
# Disc length: 2397 seconds
#
# Revision: 1
# Processed by: cddbd v1.5.2PL0 Copyright (c) Steve Scherf et al.
# Submitted via: EZCDAudioConverter 7.0.6.1
#
DISCID=aa095b0d
DTITLE=John Hammond, Jr. - Mirrors
DYEAR=1967
DGENRE=Blues
TTITLE0=I Wish You Would
TTITLE1=They Call It Stormy Monday (But Tuesday Is Just As Bad)
TTITLE2=Statesboro Blues
TTITLE3=Keys To The Highway
TTITLE4=I Just Got Here
TTITLE5=Travelling Riverside
TTITLE6=Stones In My Passway
TTITLE7=Walking Blues
TTITLE8=Death Don't Have No Mercy
TTITLE9=Motherless Willie Johnson
TTITLE10=When You Are Gone
TTITLE11=Rock Me Mama
TTITLE12=Get Right Church
EXTD=
EXTT0=
EXTT1=
EXTT2=
EXTT3=
EXTT4=
EXTT5=
EXTT6=
EXTT7=
EXTT8=
EXTT9=
EXTT10=
EXTT11=
EXTT12=
PLAYORDER=
